<?xml version="1.0" encoding="UTF-8"?>
<!-- BibScrip Logo - Bible with Cross -->
<svg
  xmlns="http://www.w3.org/2000/svg"
  viewBox="0 0 24 24"
  fill="none"
  stroke="#0070f3"
  stroke-width="1.5"
  stroke-linecap="round"
  stroke-linejoin="round"
  width="100%" 
  height="100%"
>
  <!-- Background shape for better visibility as favicon -->
  <rect x="2" y="1" width="20" height="22" rx="2" ry="2" fill="white" stroke="none" />
  <!-- Book Cover -->
  <path d="M4 19.5A2.5 2.5 0 0 1 6.5 17H20" stroke="#0070f3" />
  <path d="M6.5 2H20v15H6.5A2.5 2.5 0 0 1 4 14.5V4.5A2.5 2.5 0 0 1 6.5 2z" stroke="#0070f3" />
  <!-- Cross -->
  <line x1="12" y1="6" x2="12" y2="14" stroke-width="2" stroke="#0070f3" />
  <line x1="9" y1="10" x2="15" y2="10" stroke-width="2" stroke="#0070f3" />
  <!-- Bookmark -->
  <path d="M12 17v5l-2-1-2 1V17" stroke="#0070f3" />
  <!-- Optional: Page lines on top if desired, can be subtle -->
  <line x1="7" y1="4" x2="19" y2="4" stroke-width="0.5" stroke="#0070f3" opacity="0.7" />
  <line x1="7" y1="5" x2="19" y2="5" stroke-width="0.5" stroke="#0070f3" opacity="0.5" />
</svg>
